# xmcd CD database file
#
# Track frame offsets:
#	150
#	11100
#	22935
#	32420
#	44882
#	61172
#	72125
#	83840
#	96642
#	108390
#	119527
#	129800
#	142582
#	152790
#	162945
#	174770
#	184432
#	193802
#	204602
#	215332
#
# Disc length: 3008 seconds
#
# Revision: 3
# Processed by: cddbd v1.5.2PL0 Copyright (c) Steve Scherf et al.
# Submitted via: CDex 1.70beta2
#
DISCID=140bbe14
DTITLE=Various Artist - This is Country - The Giants Of Country
DYEAR=1997
DGENRE=Country Classics
TTITLE0=Patsy Cline  - Stop The World
TTITLE1=Faron Young - I Heard The Jukebox Playing
TTITLE2=Johnny Cash - Rock Island Line
TTITLE3=Laester Flatt and Earl Scruggs - Doin` My Time
TTITLE4=Roger Miller - Honey
TTITLE5=Johnny Paycheck - Heartbrek, Tennessee
TTITLE6=Johnny Cash - You`re The Nearest Thing To Heaven
TTITLE7=Jerry Wallace - Shutters And Boards
TTITLE8=Conway Twitty - Crazy Dreams
TTITLE9=Jeannie C Riley - Box Of Memories
TTITLE10=Johnny Cash - Train Of Love
TTITLE11=George Jones  - I Love You Because
TTITLE12=Jan Howard  - I Wish I Cloud Fall In Love Again
TTITLE13=Dave Dudley - Oh Lonesome Me
TTITLE14=Johnny Cash - I Walk The Line
TTITLE15=Benny Barnes - Poor Man`s Riches
TTITLE16=Jennie C Riles - The Girl Most Likely
TTITLE17=Carl Belew - Am I That Easy To Forget
TTITLE18=Roger Miller - King Of The Road
TTITLE19=Johnny Paycheck - A-11
EXTD=YEAR: 1997
EXTT0=
EXTT1=
EXTT2=
EXTT3=
EXTT4=
EXTT5=
EXTT6=
EXTT7=
EXTT8=
EXTT9=
EXTT10=
EXTT11=
EXTT12=
EXTT13=
EXTT14=
EXTT15=
EXTT16=
EXTT17=
EXTT18=
EXTT19=
PLAYORDER=
